<svg width="40" height="40" viewBox="0 0 40 40" fill="none" xmlns="http://www.w3.org/2000/svg">
<path d="M33.3327 16.6666C33.3327 26.6666 19.9993 36.6666 19.9993 36.6666C19.9993 36.6666 6.66602 26.6666 6.66602 16.6666C6.66602 13.1304 8.07077 9.73904 10.5713 7.23856C13.0717 4.73807 16.4631 3.33331 19.9993 3.33331C23.5356 3.33331 26.927 4.73807 29.4274 7.23856C31.9279 9.73904 33.3327 13.1304 33.3327 16.6666Z" fill="#0BA495" stroke="#0BA495" stroke-width="1.5" stroke-linecap="round" stroke-linejoin="round"/>
<path d="M20 21.6667C22.7614 21.6667 25 19.4281 25 16.6667C25 13.9053 22.7614 11.6667 20 11.6667C17.2386 11.6667 15 13.9053 15 16.6667C15 19.4281 17.2386 21.6667 20 21.6667Z" fill="white" stroke="white" stroke-width="1.5" stroke-linecap="round" stroke-linejoin="round"/>
</svg>
